<svg width="2651" height="2989" viewBox="0 0 2651 2989" fill="none" xmlns="http://www.w3.org/2000/svg">
<g opacity="0.3">
<path d="M1988.13 514.025L2087.27 427.891L1947.97 637.587L1842.4 728.234L1667.1 925.176L1248.91 1527.16L1229.27 1555.44C1214.22 1577.1 1201.66 1600.39 1191.83 1624.86L859.025 2453.36L802.377 2431.87L1100.84 1693.87C1134.88 1609.7 1177.05 1529.05 1226.75 1453.07L1230.79 1446.89L1293.15 1375.3L1293.16 1375.3L1632.75 886.451L1988.13 514.025Z" fill="#728001"/>
<path d="M2196.09 310.285C2244.52 745.397 1990.26 773.78 1844.84 731.041C1839.4 729.443 1838.21 722.364 1842.63 718.806C1926.86 650.896 2048.2 486.838 2100.26 410.349C2048.07 469.78 1895.21 620.538 1818.78 694.862C1815.35 698.188 1809.6 696.984 1807.64 692.633C1695.33 442.893 2008.94 330.442 2188.29 303.994C2192.17 303.422 2195.65 306.39 2196.09 310.285Z" fill="#8D9E03"/>
<path d="M1251.28 287.357L1205.43 238.19L1263.17 351.905L1331.79 452.427L1389.8 513.127L1565.24 840.65L1522.42 825.052L1339.21 766.002L1199.66 729.706L1369.45 812.288L1448.51 842.999L1514.28 851.54L1582.98 873.766L1632.13 982.212L1636.89 948.917L1576.57 804.991L1590.59 723.825L1630.94 573.615L1688.03 349.279L1598.72 553.852L1573.68 643.342L1559.08 709.641L1553.33 761.615L1410.86 495.649L1251.28 287.357Z" fill="#728001"/>
<path d="M1708.1 268.869C1345.25 451.124 1445.42 639.514 1549.2 718.463C1553.54 721.76 1559.72 719.098 1560.44 713.826C1572.89 622.134 1642.22 457.762 1676.77 384.155C1655.73 449.033 1612.41 626.734 1591.16 716.813C1590.02 721.632 1594.51 726.008 1599.48 725.055C1846.85 677.56 1783.79 408.369 1717.8 271.928C1716.09 268.395 1711.61 267.106 1708.1 268.869Z" fill="#8D9E03"/>
<path d="M1143.29 158.597C1054.52 489.539 1254.89 536.511 1378.94 517.616C1384.72 516.736 1387.02 509.754 1383.07 505.74C1322.36 444.092 1243.66 307.529 1210.4 243.878C1245.93 294.658 1352.31 424.845 1406.47 490.142C1409.4 493.671 1415.18 493.106 1417.77 489.112C1536.24 305.95 1295.45 190.429 1152.03 153.265C1148.25 152.284 1144.31 154.814 1143.29 158.597Z" fill="#8D9E03"/>
<path d="M1098.08 699.177C1222.1 1014.15 1417.79 943.941 1510.33 861.644C1514.66 857.802 1512.32 850.757 1506.58 849.644C1418.78 832.632 1271.27 765.029 1205.33 731.664C1265.56 753.456 1432.83 801.08 1517.24 824.486C1521.75 825.735 1526.12 822.191 1525.89 817.577C1515.31 605.47 1244.39 642.507 1102.09 690.097C1098.38 691.339 1096.64 695.534 1098.08 699.177Z" fill="#8D9E03"/>
<path d="M795.158 947.832L749.302 898.665L807.049 1012.38L875.666 1112.9L933.679 1173.6L1109.12 1501.13L1066.3 1485.53L883.083 1426.48L743.534 1390.18L913.328 1472.76L992.382 1503.47L1058.15 1512.02L1126.86 1534.24L1176 1642.69L1180.76 1609.39L1120.44 1465.47L1134.47 1384.3L1174.82 1234.09L1231.91 1009.75L1142.6 1214.33L1117.56 1303.82L1102.95 1370.12L1097.21 1422.09L954.739 1156.13L795.158 947.832Z" fill="#728001"/>
<path d="M1251.97 929.343C889.127 1111.6 989.296 1299.99 1093.08 1378.94C1097.41 1382.23 1103.6 1379.57 1104.31 1374.3C1116.77 1282.61 1186.1 1118.24 1220.64 1044.63C1199.61 1109.51 1156.29 1287.21 1135.03 1377.29C1133.9 1382.11 1138.39 1386.48 1143.35 1385.53C1390.73 1338.03 1327.67 1068.84 1261.67 932.402C1259.96 928.869 1255.49 927.579 1251.97 929.343Z" fill="#8D9E03"/>
<path d="M687.169 819.07C598.391 1150.01 798.765 1196.99 922.819 1178.09C928.598 1177.21 930.893 1170.23 926.94 1166.21C866.231 1104.57 787.54 968.003 754.27 904.352C789.808 955.132 896.189 1085.32 950.348 1150.62C953.276 1154.15 959.059 1153.58 961.642 1149.59C1080.12 966.424 839.324 850.903 695.909 813.739C692.124 812.758 688.183 815.287 687.169 819.07Z" fill="#8D9E03"/>
<path d="M641.951 1359.65C765.977 1674.63 961.66 1604.42 1054.21 1522.12C1058.53 1518.28 1056.19 1511.23 1050.45 1510.12C962.657 1493.11 815.144 1425.5 749.204 1392.14C809.432 1413.93 976.708 1461.56 1061.12 1484.96C1065.62 1486.21 1070 1482.67 1069.77 1478.05C1059.19 1265.95 788.268 1302.98 645.966 1350.57C642.251 1351.81 640.517 1356.01 641.951 1359.65Z" fill="#8D9E03"/>
<path d="M523.473 1612.51L477.616 1563.34L535.363 1677.05L603.981 1777.58L661.994 1838.28L837.434 2165.8L794.612 2150.2L611.398 2091.15L471.848 2054.85L641.642 2137.44L720.696 2168.15L786.468 2176.69L855.173 2198.91L904.315 2307.36L909.076 2274.07L848.756 2130.14L862.782 2048.97L903.131 1898.76L960.221 1674.43L870.915 1879L845.872 1968.49L831.268 2034.79L825.521 2086.76L683.054 1820.8L523.473 1612.51Z" fill="#728001"/>
<path d="M980.29 1594.02C617.441 1776.27 717.611 1964.66 821.393 2043.61C825.727 2046.91 831.912 2044.25 832.628 2038.97C845.082 1947.28 914.412 1782.91 948.956 1709.3C927.924 1774.18 884.603 1951.88 863.349 2041.96C862.212 2046.78 866.705 2051.16 871.668 2050.2C1119.04 2002.71 1055.98 1733.52 989.988 1597.08C988.279 1593.54 983.801 1592.25 980.29 1594.02Z" fill="#8D9E03"/>
<path d="M415.483 1483.74C326.705 1814.69 527.08 1861.66 651.133 1842.76C656.913 1841.88 659.208 1834.9 655.255 1830.89C594.546 1769.24 515.854 1632.68 482.585 1569.03C518.123 1619.81 624.503 1749.99 678.662 1815.29C681.59 1818.82 687.373 1818.25 689.957 1814.26C808.435 1631.1 567.639 1515.58 424.224 1478.41C420.439 1477.43 416.498 1479.96 415.483 1483.74Z" fill="#8D9E03"/>
<path d="M370.266 2024.32C494.292 2339.3 689.975 2269.09 782.523 2186.79C786.845 2182.95 784.509 2175.91 778.765 2174.79C690.972 2157.78 543.458 2090.18 477.518 2056.81C537.746 2078.6 705.022 2126.23 789.432 2149.63C793.936 2150.88 798.314 2147.34 798.084 2142.73C787.503 1930.62 516.582 1967.65 374.28 2015.25C370.566 2016.49 368.831 2020.68 370.266 2024.32Z" fill="#8D9E03"/>
<path d="M2291.47 1045.66L2353.51 1019.74L2226.81 1034.38L2108.71 1063.79L2031.64 1097.1L1663.56 1147.81L1693.07 1113.07L1812.1 961.793L1894.62 843.55L1758.19 974.071L1701.92 1037.53L1671.06 1096.23L1626.35 1152.94L1434.75 1228.76L1409.91 1282.91L1693.06 1170.81L1764.3 1212.17L1891.13 1302.2L2081.65 1433.68L1920.86 1278.86L1845.64 1224.28L1788.55 1187.55L1741.81 1164.1L2040.71 1122.92L2291.47 1045.66Z" fill="#728001"/>
<path d="M2150.08 1480.44C2105.26 1076.87 1893.8 1105.34 1783.71 1175.22C1779.11 1178.14 1779.46 1184.87 1784.15 1187.37C1865.8 1230.91 1995.84 1353.03 2052.86 1411C1999.33 1368.73 1847.76 1266.37 1770.68 1215.14C1766.55 1212.4 1760.89 1215.09 1760.06 1220.08C1718.64 1468.54 1992.97 1502.94 2143.84 1488.47C2147.75 1488.09 2150.51 1484.34 2150.08 1480.44Z" fill="#8D9E03"/>
<path d="M2449.73 989.136C2170.25 790.898 2056.59 962.467 2031.2 1085.36C2030.02 1091.08 2035.77 1095.66 2040.9 1093.35C2119.8 1057.84 2275.2 1031.5 2346.45 1022.42C2286.48 1038.1 2127.44 1092.62 2047.4 1120.72C2043.07 1122.24 2041.59 1127.85 2044.44 1131.67C2175.02 1306.4 2367.01 1120.75 2451.69 999.184C2453.93 995.976 2452.92 991.402 2449.73 989.136Z" fill="#8D9E03"/>
<path d="M1958.54 758.902C1620.1 765.758 1617.94 973.644 1662.95 1089.02C1665.06 1094.41 1672.47 1094.67 1675.51 1089.67C1721.97 1013.25 1836.62 898.422 1890.82 848.184C1849.45 897.087 1746.67 1037.39 1695.4 1108.41C1692.66 1112.2 1694.46 1117.54 1698.87 1118.92C1901.44 1182.7 1960.84 915.793 1965.66 765.821C1965.79 761.906 1962.46 758.823 1958.54 758.902Z" fill="#8D9E03"/>
<path d="M1932.93 1677.39L1994.96 1651.47L1868.27 1666.11L1750.17 1695.52L1673.09 1728.83L1305.02 1779.54L1334.52 1744.8L1453.55 1593.52L1536.08 1475.28L1399.64 1605.8L1343.38 1669.26L1312.51 1727.96L1267.8 1784.66L1076.2 1860.49L1051.37 1914.64L1334.52 1802.54L1405.75 1843.9L1532.59 1933.92L1723.11 2065.41L1562.31 1910.58L1487.1 1856.01L1430 1819.28L1383.26 1795.83L1682.16 1754.65L1932.93 1677.39Z" fill="#728001"/>
<path d="M1791.53 2112.17C1746.71 1708.6 1535.25 1737.07 1425.16 1806.95C1420.56 1809.87 1420.91 1816.59 1425.61 1819.1C1507.26 1862.64 1637.3 1984.76 1694.32 2042.73C1640.79 2000.46 1489.21 1898.1 1412.13 1846.87C1408.01 1844.13 1402.34 1846.82 1401.51 1851.8C1360.09 2100.27 1634.42 2134.67 1785.29 2120.2C1789.2 2119.82 1791.97 2116.07 1791.53 2112.17Z" fill="#8D9E03"/>
<path d="M2091.18 1620.86C1811.71 1422.63 1698.04 1594.19 1672.65 1717.08C1671.47 1722.81 1677.22 1727.39 1682.36 1725.08C1761.26 1689.57 1916.66 1663.23 1987.9 1654.15C1927.94 1669.83 1768.9 1724.35 1688.85 1752.44C1684.52 1753.96 1683.05 1759.58 1685.89 1763.39C1816.48 1938.13 2008.47 1752.48 2093.15 1630.91C2095.38 1627.7 2094.38 1623.13 2091.18 1620.86Z" fill="#8D9E03"/>
<path d="M1600 1390.63C1261.56 1397.49 1259.4 1605.37 1304.41 1720.75C1306.51 1726.14 1313.93 1726.4 1316.97 1721.4C1363.42 1644.99 1478.07 1530.15 1532.27 1479.91C1490.91 1528.82 1388.13 1669.12 1336.85 1740.14C1334.12 1743.93 1335.92 1749.27 1340.32 1750.65C1542.89 1814.43 1602.3 1547.52 1607.12 1397.55C1607.24 1393.64 1603.91 1390.55 1600 1390.63Z" fill="#8D9E03"/>
</g>
<path d="M1503.58 922.855L1561.29 835.86L1498.98 1026.03L1437.3 1117.85L1344.71 1305.88L1151.82 1855.7L1145.46 1873.84C1136.73 1898.73 1130.83 1924.52 1127.88 1950.73L1049.31 2647.92L1001.35 2643.45L1073.02 2020.63C1081.72 1945.05 1097.77 1870.49 1120.94 1798.03V1798.03L1153.56 1729.97L1153.56 1729.97L1310.19 1283.48L1503.58 922.855Z" fill="#728001"/>
<path d="M1620.31 724.088C1747.52 1043.59 1562.91 1120.26 1442.52 1119.51C1436.85 1119.48 1433.82 1112.96 1437.08 1108.33C1486.86 1037.5 1544.1 888.561 1567.53 819.668C1540.34 875.826 1456.25 1021.9 1413.12 1095.6C1410.71 1099.72 1404.88 1100.09 1401.86 1096.39C1265.97 930.01 1479.59 778.637 1611.11 720.124C1614.69 718.531 1618.86 720.446 1620.31 724.088Z" fill="#8D9E03"/>
<path d="M891.011 905.277L845.461 877.32L913.795 952.213L987.663 1014.7L1044.97 1048.91L1248.77 1262.69L1212.66 1259.81L1059.77 1253.38L945.164 1255.13L1092.75 1282.44L1159.83 1289.22L1212.03 1281.83L1269.38 1284.3L1330 1356.98L1326.6 1330.47L1249.89 1232.97L1243.44 1167.81L1242.54 1044.18L1238.76 860.2L1213.67 1035.86L1213.44 1109.73L1216.29 1163.62L1222.9 1204.66L1057.4 1031.06L891.011 905.277Z" fill="#728001"/>
<path d="M1235.99 795.345C999.962 1009.5 1112.67 1132.06 1208.29 1171.53C1213.32 1173.61 1218.56 1169.38 1217.9 1164.1C1208.74 1090.55 1226.76 952.317 1237.51 889.308C1235.17 942.954 1239.51 1086.04 1242.31 1160.2C1242.5 1165.14 1247.96 1168.17 1252.47 1165.89C1428.49 1077.03 1325.2 886.417 1246.15 795.737C1243.57 792.779 1238.9 792.705 1235.99 795.345Z" fill="#8D9E03"/>
<path d="M781.008 830.988C783.651 1099.24 943.602 1095.44 1034.96 1055.82C1040.32 1053.49 1040.65 1046.13 1035.8 1043.26C976.26 1007.94 888.919 921.783 850.472 880.628C888.111 911.719 995.556 987.81 1051.34 1026.71C1055.1 1029.33 1060.5 1027.27 1061.88 1022.72C1111.5 859.556 905.592 821.977 788.027 823.544C784.117 823.596 780.969 827.072 781.008 830.988Z" fill="#8D9E03"/>
<path d="M861.758 1254.45C1021.54 1465.88 1155.14 1374.74 1209.56 1292.83C1212.76 1288.01 1208.61 1281.83 1202.77 1282.23C1131.36 1287.01 1006.72 1266.87 949.92 1255.43C1000.23 1259.34 1136.47 1260.4 1206.68 1260.47C1211.36 1260.48 1214.62 1255.93 1213.13 1251.56C1159.42 1094.37 962.219 1178.4 863.234 1244.64C859.978 1246.82 859.397 1251.32 861.758 1254.45Z" fill="#8D9E03"/>
<path d="M681.452 1507.95L635.902 1479.99L704.236 1554.88L778.104 1617.37L835.411 1651.58L1039.21 1865.36L1003.1 1862.48L850.213 1856.05L735.605 1857.8L883.191 1885.11L950.267 1891.89L1002.47 1884.5L1059.82 1886.98L1120.44 1959.65L1117.04 1933.14L1040.33 1835.64L1033.88 1770.48L1032.98 1646.85L1029.2 1462.87L1004.11 1638.53L1003.88 1712.4L1006.73 1766.29L1013.34 1807.33L847.844 1633.73L681.452 1507.95Z" fill="#728001"/>
<path d="M1026.43 1398.02C790.403 1612.17 903.108 1734.73 998.73 1774.2C1003.76 1776.28 1009 1772.05 1008.35 1766.77C999.184 1693.22 1017.2 1554.99 1027.95 1491.98C1025.61 1545.62 1029.95 1688.71 1032.75 1762.87C1032.94 1767.81 1038.4 1770.84 1042.91 1768.56C1218.93 1679.7 1115.64 1489.09 1036.59 1398.41C1034.01 1395.45 1029.34 1395.38 1026.43 1398.02Z" fill="#8D9E03"/>
<path d="M571.449 1433.66C574.092 1701.91 734.043 1698.11 825.4 1658.49C830.762 1656.16 831.088 1648.8 826.245 1645.93C766.7 1610.6 679.359 1524.45 640.913 1483.3C678.552 1514.39 785.997 1590.48 841.782 1629.38C845.544 1632 850.942 1629.94 852.325 1625.39C901.938 1462.22 696.033 1424.65 578.467 1426.21C574.558 1426.27 571.41 1429.74 571.449 1433.66Z" fill="#8D9E03"/>
<path d="M652.198 1857.12C811.978 2068.55 945.578 1977.41 999.999 1895.5C1003.2 1890.68 999.046 1884.5 993.208 1884.9C921.805 1889.68 797.159 1869.54 740.361 1858.1C790.669 1862.01 926.91 1863.07 997.122 1863.14C1001.8 1863.15 1005.06 1858.6 1003.57 1854.23C949.86 1697.04 752.66 1781.07 653.674 1847.31C650.419 1849.49 649.838 1853.99 652.198 1857.12Z" fill="#8D9E03"/>
<path d="M614.093 2074.76L568.543 2046.8L636.877 2121.69L710.745 2184.18L768.051 2218.39L971.852 2432.17L935.738 2429.29L782.854 2422.86L668.246 2424.61L815.832 2451.92L882.908 2458.7L935.109 2451.31L992.459 2453.79L1053.08 2526.46L1049.68 2499.95L972.972 2402.45L966.525 2337.29L965.619 2213.66L961.838 2029.68L936.75 2205.34L936.52 2279.21L939.375 2333.1L945.982 2374.14L780.485 2200.54L614.093 2074.76Z" fill="#728001"/>
<path d="M959.07 1964.82C723.043 2178.98 835.749 2301.54 931.371 2341.01C936.404 2343.09 941.644 2338.86 940.986 2333.58C931.825 2260.03 949.84 2121.8 960.594 2058.79C958.247 2112.43 962.592 2255.52 965.394 2329.68C965.58 2334.62 971.039 2337.65 975.551 2335.37C1151.57 2246.51 1048.29 2055.9 969.227 1965.22C966.648 1962.26 961.98 1962.18 959.07 1964.82Z" fill="#8D9E03"/>
<path d="M504.089 2000.47C506.733 2268.72 666.683 2264.92 758.041 2225.3C763.403 2222.97 763.729 2215.61 758.886 2212.74C699.341 2177.41 612 2091.26 573.554 2050.11C611.193 2081.2 718.637 2157.29 774.423 2196.19C778.185 2198.81 783.582 2196.75 784.966 2192.2C834.579 2029.03 628.674 1991.46 511.108 1993.02C507.199 1993.07 504.051 1996.55 504.089 2000.47Z" fill="#8D9E03"/>
<path d="M584.839 2423.93C744.619 2635.36 878.219 2544.22 932.64 2462.3C935.84 2457.49 931.687 2451.31 925.849 2451.7C854.446 2456.49 729.8 2436.35 673.002 2424.91C723.31 2428.81 859.551 2429.88 929.763 2429.95C934.437 2429.96 937.704 2425.41 936.21 2421.04C882.501 2263.85 685.301 2347.88 586.315 2414.12C583.06 2416.29 582.479 2420.8 584.839 2423.93Z" fill="#8D9E03"/>
<path d="M1848.61 1265.92L1890.65 1232.93L1796.68 1270.98L1712.43 1318.54L1660.43 1360.38L1389.16 1477.2L1404.41 1444.34L1463.56 1303.22L1501.74 1195.14L1424.86 1324.05L1395.19 1384.58L1383.98 1436.1L1361.73 1489.02L1231 1587.7L1223.44 1634.45L1416.64 1488.58L1479.98 1505.18L1596.22 1547.29L1770.05 1607.67L1614.05 1523.11L1544.87 1497.22L1493.34 1481.17L1452.56 1473.11L1672.85 1378.24L1848.61 1265.92Z" fill="#728001"/>
<path d="M1831.83 1627.61C1713.02 1331.87 1558.94 1394.97 1488.7 1470.92C1485.01 1474.92 1487.16 1481.3 1492.34 1482.52C1564.48 1499.49 1687.84 1564.41 1743.19 1596.39C1693.7 1575.54 1558.02 1529.9 1487.51 1506.76C1482.81 1505.22 1478.07 1509.29 1478.64 1514.31C1500.8 1710.24 1715.43 1679.62 1827.93 1636.99C1831.6 1635.6 1833.29 1631.25 1831.83 1627.61Z" fill="#8D9E03"/>
<path d="M1956.5 1188.59C1704.04 1097.86 1652.03 1249.17 1657.44 1348.6C1657.75 1354.43 1664.54 1357.3 1668.92 1353.75C1722.73 1310.19 1833.86 1258.23 1885.81 1236.48C1843.58 1260.97 1734.9 1335.28 1679.04 1374.07C1675.27 1376.69 1675.33 1382.47 1679.11 1385.34C1814.87 1488.56 1921.66 1308.54 1961.04 1197.76C1962.35 1194.07 1960.18 1189.91 1956.5 1188.59Z" fill="#8D9E03"/>
<path d="M1531.36 1117.17C1277.58 1193.53 1316.63 1350.47 1374.53 1429.97C1377.93 1434.64 1385.16 1432.89 1386.83 1427.28C1407.15 1358.67 1469.35 1248.78 1499.81 1199.5C1478.67 1245.32 1430.32 1372.7 1405.86 1438.51C1404.23 1442.89 1407.36 1447.53 1411.98 1447.65C1578.04 1451.91 1567.77 1237.8 1540.05 1121.96C1539.14 1118.15 1535.11 1116.04 1531.36 1117.17Z" fill="#8D9E03"/>
<path d="M1707.73 1825.89L1749.77 1792.9L1655.8 1830.95L1571.55 1878.5L1519.55 1920.35L1248.28 2037.17L1263.53 2004.31L1322.68 1863.19L1360.86 1755.11L1283.97 1884.01L1254.31 1944.55L1243.1 1996.07L1220.85 2048.99L1090.12 2147.67L1082.56 2194.42L1275.76 2048.55L1339.1 2065.15L1455.34 2107.25L1629.17 2167.63L1473.17 2083.07L1403.99 2057.19L1352.46 2041.14L1311.68 2033.08L1531.97 1938.21L1707.73 1825.89Z" fill="#728001"/>
<path d="M1690.94 2187.58C1572.14 1891.84 1418.06 1954.94 1347.82 2030.89C1344.12 2034.89 1346.27 2041.27 1351.45 2042.49C1423.6 2059.45 1546.96 2124.38 1602.31 2156.36C1552.82 2135.51 1417.14 2089.87 1346.63 2066.73C1341.93 2065.19 1337.19 2069.25 1337.76 2074.28C1359.92 2270.21 1574.55 2239.59 1687.05 2196.96C1690.72 2195.57 1692.41 2191.22 1690.94 2187.58Z" fill="#8D9E03"/>
<path d="M1815.61 1748.56C1563.15 1657.83 1511.15 1809.13 1516.55 1908.57C1516.87 1914.4 1523.66 1917.27 1528.04 1913.72C1581.85 1870.16 1692.98 1818.2 1744.93 1796.45C1702.7 1820.94 1594.02 1895.25 1538.16 1934.04C1534.39 1936.66 1534.45 1942.43 1538.23 1945.31C1673.99 2048.53 1780.78 1868.51 1820.16 1757.73C1821.47 1754.04 1819.3 1749.88 1815.61 1748.56Z" fill="#8D9E03"/>
<path d="M1390.48 1677.14C1136.7 1753.5 1175.74 1910.44 1233.65 1989.94C1237.05 1994.61 1244.28 1992.86 1245.94 1987.25C1266.27 1918.64 1328.47 1808.75 1358.92 1759.47C1337.78 1805.29 1289.44 1932.67 1264.98 1998.48C1263.35 2002.86 1266.48 2007.5 1271.1 2007.62C1437.16 2011.88 1426.88 1797.77 1399.17 1681.93C1398.26 1678.13 1394.23 1676.01 1390.48 1677.14Z" fill="#8D9E03"/>
</svg>
