<svg width="1261" height="1032" viewBox="0 0 1261 1032" fill="none" xmlns="http://www.w3.org/2000/svg">
<g clip-path="url(#clip0_619_489)">
<path d="M16.349 259.466C780.008 257.662 770.712 708.135 666.505 945.823C664.229 951.016 657.121 951.318 654.159 946.484C558.589 790.519 295.78 546.379 173.5 441.498C265.835 542.87 497.918 837.799 608.157 979.959C611.08 983.728 609.111 989.224 604.588 990.741C150.841 1142.88 18.9207 577.143 9.19949 266.494C9.0769 262.577 12.4293 259.476 16.349 259.466Z" fill="#8D9E03" stroke="#8D9E03" stroke-width="17"/>
<path d="M818.5 184.957C738.106 184.957 589.406 253.121 523.115 311.431C518.375 315.6 510.75 312.365 511.336 306.079C521.459 197.349 623.583 29.4625 818.5 3.95849C925.5 -10.0419 1052.26 12.9337 1124 75.4578C1226.04 164.391 1261 256.957 1261 399.959V1024.96C1261 1028.83 1257.87 1031.96 1254 1031.96H1031C1027.13 1031.96 1024 1028.87 1024 1025V581.959C1024 313.459 961.141 184.957 818.5 184.957Z" fill="#8D9E03"/>
</g>
<defs>
<clipPath id="clip0_619_489">
<rect width="1261" height="1032" fill="white"/>
</clipPath>
</defs>
</svg>
